<svg width="48" height="48" viewBox="0 0 48 48" fill="none" xmlns="http://www.w3.org/2000/svg">
<g clip-path="url(#clip0_257_191)">
<rect width="48" height="48" rx="10" fill="white"/>
<path d="M16.2188 33.5C16.3021 33.375 16.2708 33.2396 16.125 33.0938C15.9375 32.9479 15.7917 32.9271 15.6875 33.0312C15.6042 33.1562 15.6354 33.2917 15.7812 33.4375C15.9688 33.5833 16.1146 33.6042 16.2188 33.5ZM15.3438 32.2188C15.2396 32.0729 15.1146 32.0312 14.9688 32.0938C14.8438 32.1771 14.8438 32.3021 14.9688 32.4688C15.1146 32.6354 15.2396 32.6875 15.3438 32.625C15.4688 32.5417 15.4688 32.4062 15.3438 32.2188ZM14.0625 30.9688C14.1042 30.8854 14.0521 30.8021 13.9062 30.7188C13.7604 30.6771 13.6771 30.6979 13.6562 30.7812C13.5938 30.8854 13.6354 30.9688 13.7812 31.0312C13.9479 31.0729 14.0417 31.0521 14.0625 30.9688ZM14.7188 31.6875C14.7604 31.6667 14.776 31.6198 14.7656 31.5469C14.7552 31.474 14.7188 31.4167 14.6562 31.375C14.5312 31.2292 14.4271 31.1979 14.3438 31.2812C14.2604 31.3646 14.2708 31.4792 14.375 31.625C14.5 31.75 14.6146 31.7708 14.7188 31.6875ZM17.4062 34.0312C17.4479 33.8854 17.3542 33.7708 17.125 33.6875C16.9375 33.625 16.8021 33.6667 16.7188 33.8125C16.6771 33.9583 16.7708 34.0729 17 34.1562C17.1875 34.2188 17.3229 34.1771 17.4062 34.0312ZM18.7188 34.125C18.7188 33.9583 18.5938 33.875 18.3438 33.875C18.1354 33.875 18.0312 33.9583 18.0312 34.125C18.0312 34.2917 18.1458 34.375 18.375 34.375C18.6042 34.375 18.7188 34.2917 18.7188 34.125ZM19.9375 33.9062C19.8958 33.7604 19.7604 33.7083 19.5312 33.75C19.3021 33.7917 19.2083 33.8854 19.25 34.0312C19.2917 34.1979 19.4167 34.2604 19.625 34.2188C19.8333 34.1771 19.9375 34.0729 19.9375 33.9062ZM40 24C40 19.5833 38.4375 15.8125 35.3125 12.6875C32.1875 9.5625 28.4167 8 24 8C19.5833 8 15.8125 9.5625 12.6875 12.6875C9.5625 15.8125 8 19.5833 8 24C8 27.4792 9.02083 30.6094 11.0625 33.3906C13.1042 36.1719 15.7292 38.1042 18.9375 39.1875C19.3125 39.25 19.5885 39.1979 19.7656 39.0312C19.9427 38.8646 20.0312 38.6562 20.0312 38.4062C20.0312 37.3229 20.0208 36.3333 20 35.4375C19.875 35.4583 19.7135 35.4844 19.5156 35.5156C19.3177 35.5469 18.9479 35.5677 18.4062 35.5781C17.8646 35.5885 17.3646 35.5469 16.9062 35.4531C16.4479 35.3594 15.9948 35.151 15.5469 34.8281C15.099 34.5052 14.7917 34.0729 14.625 33.5312C14.1458 32.3021 13.5521 31.5312 12.8438 31.2188C12.8021 31.1979 12.7552 31.1615 12.7031 31.1094L12.4531 30.8594L12.2344 30.5625L12.3594 30.3281L12.9688 30.2188C13.0938 30.2188 13.25 30.2396 13.4375 30.2812C13.625 30.3229 13.9375 30.4844 14.375 30.7656C14.8125 31.0469 15.1562 31.4167 15.4062 31.875C15.7396 32.4583 16.1302 32.8958 16.5781 33.1875C17.026 33.4792 17.4792 33.625 17.9375 33.625C18.3958 33.625 18.7917 33.5885 19.125 33.5156C19.4583 33.4427 19.7708 33.3438 20.0625 33.2188C20.2083 32.2396 20.5521 31.5208 21.0938 31.0625C20.0729 30.9375 19.1771 30.7448 18.4062 30.4844C17.6354 30.224 16.875 29.8177 16.125 29.2656C15.375 28.7135 14.7969 27.9219 14.3906 26.8906C13.9844 25.8594 13.7812 24.6146 13.7812 23.1562C13.7812 21.5104 14.3333 20.0833 15.4375 18.875C14.9375 17.5833 14.9896 16.1667 15.5938 14.625C15.9896 14.5 16.5573 14.5781 17.2969 14.8594C18.0365 15.1406 18.6667 15.4479 19.1875 15.7812L20 16.2812C21.2083 15.9271 22.5417 15.75 24 15.75C25.4583 15.75 26.7917 15.9271 28 16.2812C28.2292 16.1354 28.526 15.9479 28.8906 15.7188C29.2552 15.4896 29.8333 15.2188 30.625 14.9062C31.4167 14.5938 32.0104 14.5 32.4062 14.625C33.0104 16.1667 33.0625 17.5833 32.5625 18.875C33.6667 20.0833 34.2188 21.5104 34.2188 23.1562C34.2188 24.3438 34.0729 25.3906 33.7812 26.2969C33.4896 27.2031 33.1198 27.9323 32.6719 28.4844C32.224 29.0365 31.6667 29.5 31 29.875C30.3333 30.25 29.6823 30.5208 29.0469 30.6875C28.4115 30.8542 27.6979 30.9792 26.9062 31.0625C27.6354 31.7083 28 32.6979 28 34.0312C28 34.8646 27.9948 35.7917 27.9844 36.8125C27.974 37.8333 27.9688 38.3646 27.9688 38.4062C27.9688 38.6562 28.0573 38.8646 28.2344 39.0312C28.4115 39.1979 28.6875 39.25 29.0625 39.1875C32.2708 38.1042 34.8958 36.1719 36.9375 33.3906C38.9792 30.6094 40 27.4792 40 24ZM48 9V39C48 41.4792 47.1198 43.599 45.3594 45.3594C43.599 47.1198 41.4792 48 39 48H9C6.52083 48 4.40104 47.1198 2.64062 45.3594C0.880208 43.599 0 41.4792 0 39V9C0 6.52083 0.880208 4.40104 2.64062 2.64062C4.40104 0.880208 6.52083 0 9 0H39C41.4792 0 43.599 0.880208 45.3594 2.64062C47.1198 4.40104 48 6.52083 48 9Z" fill="black"/>
</g>
<rect x="1" y="1" width="46" height="46" rx="9" stroke="white" stroke-width="2"/>
<defs>
<clipPath id="clip0_257_191">
<rect width="48" height="48" rx="10" fill="white"/>
</clipPath>
</defs>
</svg>
