<svg width="64" height="48" viewBox="0 0 64 48" fill="none" xmlns="http://www.w3.org/2000/svg">
<g clip-path="url(#clip0_257_183)">
<path d="M14.5455 47.7639V23.1645L6.87675 16.1851L0 12.312V43.4227C0 45.8247 1.95625 47.7639 4.36375 47.7639H14.5455Z" fill="#4285F4"/>
<path d="M49.4546 47.7636H59.6363C62.0511 47.7636 64.0001 45.8173 64.0001 43.4225V12.312L56.2111 16.7482L49.4546 23.1642V47.7636Z" fill="#34A853"/>
<path d="M14.5455 23.1645L13.502 13.5529L14.5455 4.35352L32 17.3767L49.4544 4.35352L50.6217 13.0562L49.4544 23.1645L32 36.1877L14.5455 23.1645Z" fill="#EA4335"/>
<path d="M49.4546 4.35325V23.1643L64.0001 12.3118V6.5237C64.0001 1.15541 57.8401 -1.90491 53.5276 1.31458L49.4546 4.35325Z" fill="#FBBC04"/>
<path d="M0 12.3119L6.68975 17.3034L14.5455 23.1644V4.35336L10.4725 1.31469C6.1525 -1.90504 0 1.15552 0 6.52356V12.3117V12.3119Z" fill="#C5221F"/>
</g>
<defs>
<clipPath id="clip0_257_183">
<rect width="64" height="48" fill="white"/>
</clipPath>
</defs>
</svg>
