<svg width="16" height="16" viewBox="0 0 16 16" fill="none" xmlns="http://www.w3.org/2000/svg">
<path d="M5.27371 12.9703C5.19188 13.0521 5.08089 13.0981 4.96516 13.0981C4.84944 13.0981 4.73845 13.0521 4.65662 12.9703L3.01104 11.3247C2.92921 11.2429 2.88324 11.1319 2.88324 11.0162C2.88324 10.9005 2.92921 10.7895 3.01104 10.7076C3.09287 10.6258 3.20386 10.5798 3.31959 10.5798C3.43532 10.5798 3.5463 10.6258 3.62813 10.7076L5.27371 12.3532C5.35554 12.4351 5.40151 12.546 5.40151 12.6618C5.40151 12.7775 5.35554 12.8885 5.27371 12.9703ZM10.0047 5.97662C10.1064 6.07833 10.236 6.14759 10.3771 6.17565C10.5182 6.20371 10.6644 6.18931 10.7973 6.13427C10.9302 6.07922 11.0438 5.98601 11.1237 5.86641C11.2036 5.74682 11.2462 5.60621 11.2462 5.46238C11.2462 5.31854 11.2036 5.17793 11.1237 5.05834C11.0438 4.93874 10.9302 4.84553 10.7973 4.79049C10.6644 4.73544 10.5182 4.72104 10.3771 4.7491C10.236 4.77716 10.1064 4.84643 10.0047 4.94813C9.86835 5.08452 9.79173 5.2695 9.79173 5.46238C9.79173 5.65525 9.86835 5.84023 10.0047 5.97662ZM12.487 13.1282L8.9922 15.3518C8.84707 15.4444 8.68081 15.4988 8.50897 15.5097C8.33714 15.5206 8.16533 15.4878 8.00963 15.4143C7.85392 15.3408 7.7194 15.229 7.61865 15.0894C7.5179 14.9497 7.45421 14.7868 7.43353 14.6159L7.08436 12.1069L3.876 8.89854L1.36547 8.54783C1.19416 8.52751 1.03082 8.46399 0.890782 8.36324C0.750746 8.26249 0.638607 8.12781 0.56489 7.97184C0.491172 7.81587 0.458293 7.64373 0.46934 7.47157C0.480387 7.29942 0.534997 7.13289 0.628044 6.98762L2.85317 3.49437C2.93698 3.36325 3.04961 3.25298 3.18248 3.17197C3.31535 3.09097 3.46496 3.04136 3.61991 3.02692L6.89872 2.73072C7.59298 2.12872 8.37706 1.6389 9.22258 1.27901C11.5161 0.293725 13.7171 0.437713 14.5568 0.545189C14.781 0.57352 14.9893 0.675603 15.1491 0.835362C15.3088 0.99512 15.4109 1.20348 15.4393 1.42763C15.5467 2.26739 15.6902 4.46783 14.7054 6.76187C14.3455 7.60738 13.8557 8.39146 13.2537 9.08573L12.9575 12.3645C12.9423 12.5192 12.892 12.6684 12.8105 12.8007C12.7289 12.933 12.6183 13.045 12.487 13.1282ZM4.56714 8.3555L7.62585 11.4142C10.7314 10.5642 12.8428 8.88363 13.9022 6.4163C14.8304 4.25905 14.6489 2.13677 14.5743 1.53459C14.5705 1.50209 14.5558 1.47181 14.5327 1.44867C14.5095 1.42553 14.4793 1.41087 14.4468 1.40706C13.8466 1.33044 11.7213 1.14994 9.56506 2.07917C7.09773 3.13851 5.41718 5.24999 4.56714 8.3555ZM3.76184 8.00273C4.24985 6.28054 4.98059 4.84014 5.95097 3.69287L3.6991 3.89599C3.67699 3.89796 3.65563 3.90496 3.63664 3.91646C3.61765 3.92796 3.60155 3.94365 3.58957 3.96233L1.36444 7.45969C1.35118 7.48052 1.34344 7.50438 1.34194 7.52902C1.34045 7.55366 1.34525 7.57828 1.3559 7.60055C1.36655 7.62283 1.38269 7.64202 1.40281 7.65634C1.42292 7.67065 1.44635 7.6796 1.47089 7.68236L1.48323 7.68339L3.76184 8.00273ZM12.0869 12.2838L12.2916 10.0335C11.1443 11.0039 9.70494 11.7356 7.98171 12.2226L8.30208 14.4971L8.30311 14.5094C8.30587 14.534 8.31482 14.5574 8.32914 14.5775C8.34345 14.5976 8.36265 14.6138 8.38492 14.6244C8.40719 14.6351 8.43181 14.6399 8.45645 14.6384C8.4811 14.6369 8.50495 14.6292 8.52578 14.6159L12.0211 12.3938C12.0396 12.3814 12.0551 12.3649 12.0662 12.3456C12.0774 12.3262 12.0839 12.3045 12.0854 12.2823L12.0869 12.2838Z" fill="#0E162A"/>
<path d="M5.27371 12.9703C5.19188 13.0521 5.08089 13.0981 4.96516 13.0981C4.84944 13.0981 4.73845 13.0521 4.65662 12.9703L3.01104 11.3247C2.92921 11.2429 2.88324 11.1319 2.88324 11.0162C2.88324 10.9005 2.92921 10.7895 3.01104 10.7076C3.09287 10.6258 3.20386 10.5798 3.31959 10.5798C3.43532 10.5798 3.5463 10.6258 3.62813 10.7076L5.27371 12.3532C5.35554 12.4351 5.40151 12.546 5.40151 12.6618C5.40151 12.7775 5.35554 12.8885 5.27371 12.9703ZM10.0047 5.97662C10.1064 6.07833 10.236 6.14759 10.3771 6.17565C10.5182 6.20371 10.6644 6.18931 10.7973 6.13427C10.9302 6.07922 11.0438 5.98601 11.1237 5.86641C11.2036 5.74682 11.2462 5.60621 11.2462 5.46238C11.2462 5.31854 11.2036 5.17793 11.1237 5.05834C11.0438 4.93874 10.9302 4.84553 10.7973 4.79049C10.6644 4.73544 10.5182 4.72104 10.3771 4.7491C10.236 4.77716 10.1064 4.84643 10.0047 4.94813C9.86835 5.08452 9.79173 5.2695 9.79173 5.46238C9.79173 5.65525 9.86835 5.84023 10.0047 5.97662ZM12.487 13.1282L8.9922 15.3518C8.84707 15.4444 8.68081 15.4988 8.50897 15.5097C8.33714 15.5206 8.16533 15.4878 8.00963 15.4143C7.85392 15.3408 7.7194 15.229 7.61865 15.0894C7.5179 14.9497 7.45421 14.7868 7.43353 14.6159L7.08436 12.1069L3.876 8.89854L1.36547 8.54783C1.19416 8.52751 1.03082 8.46399 0.890782 8.36324C0.750746 8.26249 0.638607 8.12781 0.56489 7.97184C0.491172 7.81587 0.458293 7.64373 0.46934 7.47157C0.480387 7.29942 0.534997 7.13289 0.628044 6.98762L2.85317 3.49437C2.93698 3.36325 3.04961 3.25298 3.18248 3.17197C3.31535 3.09097 3.46496 3.04136 3.61991 3.02692L6.89872 2.73072C7.59298 2.12872 8.37706 1.6389 9.22258 1.27901C11.5161 0.293725 13.7171 0.437713 14.5568 0.545189C14.781 0.57352 14.9893 0.675603 15.1491 0.835362C15.3088 0.99512 15.4109 1.20348 15.4393 1.42763C15.5467 2.26739 15.6902 4.46783 14.7054 6.76187C14.3455 7.60738 13.8557 8.39146 13.2537 9.08573L12.9575 12.3645C12.9423 12.5192 12.892 12.6684 12.8105 12.8007C12.7289 12.933 12.6183 13.045 12.487 13.1282ZM4.56714 8.3555L7.62585 11.4142C10.7314 10.5642 12.8428 8.88363 13.9022 6.4163C14.8304 4.25905 14.6489 2.13677 14.5743 1.53459C14.5705 1.50209 14.5558 1.47181 14.5327 1.44867C14.5095 1.42553 14.4793 1.41087 14.4468 1.40706C13.8466 1.33044 11.7213 1.14994 9.56506 2.07917C7.09773 3.13851 5.41718 5.24999 4.56714 8.3555ZM3.76184 8.00273C4.24985 6.28054 4.98059 4.84014 5.95097 3.69287L3.6991 3.89599C3.67699 3.89796 3.65563 3.90496 3.63664 3.91646C3.61765 3.92796 3.60155 3.94365 3.58957 3.96233L1.36444 7.45969C1.35118 7.48052 1.34344 7.50438 1.34194 7.52902C1.34045 7.55366 1.34525 7.57828 1.3559 7.60055C1.36655 7.62283 1.38269 7.64202 1.40281 7.65634C1.42292 7.67065 1.44635 7.6796 1.47089 7.68236L1.48323 7.68339L3.76184 8.00273ZM12.0869 12.2838L12.2916 10.0335C11.1443 11.0039 9.70494 11.7356 7.98171 12.2226L8.30208 14.4971L8.30311 14.5094C8.30587 14.534 8.31482 14.5574 8.32914 14.5775C8.34345 14.5976 8.36265 14.6138 8.38492 14.6244C8.40719 14.6351 8.43181 14.6399 8.45645 14.6384C8.4811 14.6369 8.50495 14.6292 8.52578 14.6159L12.0211 12.3938C12.0396 12.3814 12.0551 12.3649 12.0662 12.3456C12.0774 12.3262 12.0839 12.3045 12.0854 12.2823L12.0869 12.2838Z" fill="black" fill-opacity="0.2"/>
</svg>
