<svg width="16" height="14" viewBox="0 0 16 14" fill="none" xmlns="http://www.w3.org/2000/svg">
<path d="M5.95745 6.40426C5.95745 6.28575 6.00452 6.17211 6.08831 6.08831C6.17211 6.00452 6.28575 5.95745 6.40426 5.95745H8.78723C8.90574 5.95745 9.01938 6.00452 9.10318 6.08831C9.18697 6.17211 9.23404 6.28575 9.23404 6.40426C9.23404 6.52276 9.18697 6.6364 9.10318 6.7202C9.01938 6.80399 8.90574 6.85106 8.78723 6.85106H6.40426C6.28575 6.85106 6.17211 6.80399 6.08831 6.7202C6.00452 6.6364 5.95745 6.52276 5.95745 6.40426ZM15.1915 3.42553V12.9574C15.1915 13.2339 15.0816 13.4991 14.8861 13.6946C14.6906 13.8902 14.4254 14 14.1489 14H1.04255C0.766051 14 0.500873 13.8902 0.305357 13.6946C0.10984 13.4991 0 13.2339 0 12.9574V3.42553C0 3.14903 0.10984 2.88385 0.305357 2.68834C0.500873 2.49282 0.766051 2.38298 1.04255 2.38298H4.17021V1.6383C4.17021 1.20379 4.34282 0.787087 4.65006 0.479846C4.9573 0.172606 5.37401 0 5.80851 0H9.38298C9.81748 0 10.2342 0.172606 10.5414 0.479846C10.8487 0.787087 11.0213 1.20379 11.0213 1.6383V2.38298H14.1489C14.4254 2.38298 14.6906 2.49282 14.8861 2.68834C15.0816 2.88385 15.1915 3.14903 15.1915 3.42553ZM5.06383 2.38298H10.1277V1.6383C10.1277 1.4408 10.0492 1.25138 9.90955 1.11173C9.76989 0.972074 9.58048 0.893617 9.38298 0.893617H5.80851C5.61101 0.893617 5.4216 0.972074 5.28194 1.11173C5.14229 1.25138 5.06383 1.4408 5.06383 1.6383V2.38298ZM0.893617 3.42553V6.61202C2.94539 7.74604 5.25143 8.34075 7.59574 8.34043C9.94016 8.34081 12.2463 7.74583 14.2979 6.61128V3.42553C14.2979 3.38603 14.2822 3.34815 14.2542 3.32022C14.2263 3.29229 14.1884 3.2766 14.1489 3.2766H1.04255C1.00305 3.2766 0.96517 3.29229 0.937239 3.32022C0.909308 3.34815 0.893617 3.38603 0.893617 3.42553ZM14.2979 12.9574V7.6233C12.2224 8.68188 9.92563 9.23386 7.59574 9.23404C5.26589 9.23429 2.96913 8.68255 0.893617 7.62404V12.9574C0.893617 12.9969 0.909308 13.0348 0.937239 13.0628C0.96517 13.0907 1.00305 13.1064 1.04255 13.1064H14.1489C14.1884 13.1064 14.2263 13.0907 14.2542 13.0628C14.2822 13.0348 14.2979 12.9969 14.2979 12.9574Z" fill="#0E162A"/>
<path d="M5.95745 6.40426C5.95745 6.28575 6.00452 6.17211 6.08831 6.08831C6.17211 6.00452 6.28575 5.95745 6.40426 5.95745H8.78723C8.90574 5.95745 9.01938 6.00452 9.10318 6.08831C9.18697 6.17211 9.23404 6.28575 9.23404 6.40426C9.23404 6.52276 9.18697 6.6364 9.10318 6.7202C9.01938 6.80399 8.90574 6.85106 8.78723 6.85106H6.40426C6.28575 6.85106 6.17211 6.80399 6.08831 6.7202C6.00452 6.6364 5.95745 6.52276 5.95745 6.40426ZM15.1915 3.42553V12.9574C15.1915 13.2339 15.0816 13.4991 14.8861 13.6946C14.6906 13.8902 14.4254 14 14.1489 14H1.04255C0.766051 14 0.500873 13.8902 0.305357 13.6946C0.10984 13.4991 0 13.2339 0 12.9574V3.42553C0 3.14903 0.10984 2.88385 0.305357 2.68834C0.500873 2.49282 0.766051 2.38298 1.04255 2.38298H4.17021V1.6383C4.17021 1.20379 4.34282 0.787087 4.65006 0.479846C4.9573 0.172606 5.37401 0 5.80851 0H9.38298C9.81748 0 10.2342 0.172606 10.5414 0.479846C10.8487 0.787087 11.0213 1.20379 11.0213 1.6383V2.38298H14.1489C14.4254 2.38298 14.6906 2.49282 14.8861 2.68834C15.0816 2.88385 15.1915 3.14903 15.1915 3.42553ZM5.06383 2.38298H10.1277V1.6383C10.1277 1.4408 10.0492 1.25138 9.90955 1.11173C9.76989 0.972074 9.58048 0.893617 9.38298 0.893617H5.80851C5.61101 0.893617 5.4216 0.972074 5.28194 1.11173C5.14229 1.25138 5.06383 1.4408 5.06383 1.6383V2.38298ZM0.893617 3.42553V6.61202C2.94539 7.74604 5.25143 8.34075 7.59574 8.34043C9.94016 8.34081 12.2463 7.74583 14.2979 6.61128V3.42553C14.2979 3.38603 14.2822 3.34815 14.2542 3.32022C14.2263 3.29229 14.1884 3.2766 14.1489 3.2766H1.04255C1.00305 3.2766 0.96517 3.29229 0.937239 3.32022C0.909308 3.34815 0.893617 3.38603 0.893617 3.42553ZM14.2979 12.9574V7.6233C12.2224 8.68188 9.92563 9.23386 7.59574 9.23404C5.26589 9.23429 2.96913 8.68255 0.893617 7.62404V12.9574C0.893617 12.9969 0.909308 13.0348 0.937239 13.0628C0.96517 13.0907 1.00305 13.1064 1.04255 13.1064H14.1489C14.1884 13.1064 14.2263 13.0907 14.2542 13.0628C14.2822 13.0348 14.2979 12.9969 14.2979 12.9574Z" fill="black" fill-opacity="0.2"/>
</svg>
