<svg width="245" height="106" viewBox="0 0 245 106" fill="none" xmlns="http://www.w3.org/2000/svg">
<path d="M16.4811 16.2L16.1229 17.1336L16.1299 17.1363L16.1369 17.1389L16.4811 16.2ZM24.9931 11.552L24.491 12.4168L25.7239 13.1327L25.9772 11.7297L24.9931 11.552ZM26.4491 3.488L27.4332 3.66568L27.5682 2.91819L26.8843 2.58765L26.4491 3.488ZM12.6731 24.208L12.3146 25.1415L12.3167 25.1423L12.6731 24.208ZM2.31313 29.36L2.785 28.4783L1.56166 27.8236L1.32747 29.1912L2.31313 29.36ZM0.913125 37.536L-0.0725294 37.3672L-0.202386 38.1256L0.497365 38.4455L0.913125 37.536ZM29.2411 28.352C29.2411 25.0574 28.3287 22.5166 26.2169 20.4126C24.1642 18.3675 21.0482 16.8095 16.8254 15.2611L16.1369 17.1389C20.314 18.6705 23.078 20.1085 24.8053 21.8294C26.4735 23.4914 27.2411 25.4866 27.2411 28.352H29.2411ZM16.8394 15.2664C14.4195 14.3378 13.0965 13.687 12.3704 13.0897C12.03 12.8097 11.8557 12.568 11.7564 12.3446C11.6554 12.1173 11.6011 11.8396 11.6011 11.44H9.60113C9.60113 12.0204 9.67982 12.5966 9.92881 13.1569C10.1795 13.721 10.5723 14.2003 11.0999 14.6343C12.1098 15.465 13.7267 16.2142 16.1229 17.1336L16.8394 15.2664ZM11.6011 11.44C11.6011 10.8342 11.8218 10.3863 12.2626 10.0579C12.7418 9.70083 13.5793 9.416 14.9131 9.416V7.416C13.335 7.416 12.0164 7.74717 11.0676 8.45411C10.0805 9.18967 9.60113 10.2538 9.60113 11.44H11.6011ZM14.9131 9.416C17.6563 9.416 21.1233 10.4613 24.491 12.4168L25.4953 10.6872C21.919 8.61066 18.106 7.416 14.9131 7.416V9.416ZM25.9772 11.7297L27.4332 3.66568L25.465 3.31032L24.009 11.3743L25.9772 11.7297ZM26.8843 2.58765C23.3979 0.902566 20.0019 -0.0880008 14.8011 -0.0880008V1.912C19.6804 1.912 22.7803 2.82543 26.014 4.38835L26.8843 2.58765ZM14.8011 -0.0880008C10.9373 -0.0880008 7.39252 0.950337 4.79226 3.05349C2.16679 5.17702 0.585125 8.32416 0.585125 12.336H2.58513C2.58513 8.89983 3.91546 6.33497 6.04999 4.60851C8.20974 2.86166 11.273 1.912 14.8011 1.912V-0.0880008ZM0.585125 12.336C0.585125 15.7333 1.49206 18.236 3.52539 20.2615C5.49386 22.2223 8.44471 23.6553 12.3146 25.1415L13.0317 23.2745C9.17354 21.7927 6.58039 20.4817 4.93686 18.8445C3.35819 17.272 2.58513 15.3227 2.58513 12.336H0.585125ZM12.3167 25.1423C15.0483 26.1843 16.5372 26.9051 17.3532 27.5722C17.7368 27.8858 17.9353 28.1601 18.0491 28.4203C18.1655 28.6864 18.2251 29.0099 18.2251 29.472H20.2251C20.2251 28.8421 20.1448 28.2206 19.8814 27.6187C19.6155 27.0109 19.1944 26.4942 18.6191 26.0238C17.5171 25.1229 15.7299 24.3037 13.0295 23.2737L12.3167 25.1423ZM18.2251 29.472C18.2251 30.3025 17.9008 30.8637 17.3515 31.2534C16.7591 31.6737 15.8256 31.944 14.5771 31.944V33.944C16.0726 33.944 17.4632 33.6263 18.5087 32.8846C19.5974 32.1123 20.2251 30.9375 20.2251 29.472H18.2251ZM14.5771 31.944C10.937 31.944 6.67898 30.5624 2.785 28.4783L1.84125 30.2417C5.89927 32.4136 10.4893 33.944 14.5771 33.944V31.944ZM1.32747 29.1912L-0.0725294 37.3672L1.89878 37.7048L3.29878 29.5288L1.32747 29.1912ZM0.497365 38.4455C4.53826 40.2927 9.04746 41.448 14.4091 41.448V39.448C9.35479 39.448 5.12799 38.3633 1.32888 36.6265L0.497365 38.4455ZM14.4091 41.448C18.3888 41.448 22.0918 40.4913 24.822 38.3347C27.5871 36.1505 29.2411 32.8232 29.2411 28.352H27.2411C27.2411 32.2808 25.8152 35.0015 23.5823 36.7653C21.3144 38.5567 18.1014 39.448 14.4091 39.448V41.448ZM67.7793 38.824L67.94 39.811L69.1248 39.6181L68.7211 38.4877L67.7793 38.824ZM54.3393 1.192L55.2811 0.855663L55.044 0.191999H54.3393V1.192ZM43.8113 1.192V0.191999H43.1071L42.8698 0.85506L43.8113 1.192ZM29.9233 40L28.9818 39.6631L28.5033 41H29.9233V40ZM39.2753 40V41H39.9945L40.2233 40.3182L39.2753 40ZM41.9633 31.992V30.992H41.2441L41.0153 31.6738L41.9633 31.992ZM55.2353 31.992L56.1802 31.6645L55.947 30.992H55.2353V31.992ZM58.1473 40.392L57.2025 40.7195L57.4779 41.5141L58.308 41.379L58.1473 40.392ZM52.9393 24.488V25.488H54.3158L53.8903 24.1789L52.9393 24.488ZM44.2033 24.488L43.2523 24.1789L42.8268 25.488H44.2033V24.488ZM48.5713 11.048L49.5223 10.7389L48.5713 7.81265L47.6203 10.7389L48.5713 11.048ZM68.7211 38.4877L55.2811 0.855663L53.3976 1.52834L66.8376 39.1603L68.7211 38.4877ZM54.3393 0.191999H43.8113V2.192H54.3393V0.191999ZM42.8698 0.85506L28.9818 39.6631L30.8648 40.3369L44.7528 1.52894L42.8698 0.85506ZM29.9233 41H39.2753V39H29.9233V41ZM40.2233 40.3182L42.9113 32.3102L41.0153 31.6738L38.3273 39.6818L40.2233 40.3182ZM41.9633 32.992H55.2353V30.992H41.9633V32.992ZM54.2905 32.3195L57.2025 40.7195L59.0921 40.0645L56.1802 31.6645L54.2905 32.3195ZM58.308 41.379L67.94 39.811L67.6186 37.837L57.9866 39.405L58.308 41.379ZM52.9393 23.488H44.2033V25.488H52.9393V23.488ZM45.1543 24.7971L49.5223 11.3571L47.6203 10.7389L43.2523 24.1789L45.1543 24.7971ZM47.6203 11.3571L51.9883 24.7971L53.8903 24.1789L49.5223 10.7389L47.6203 11.3571ZM104.468 40V41H105.468V40H104.468ZM104.468 1.36H105.468V0.359997H104.468V1.36ZM95.5636 1.36V0.359997H94.5636V1.36H95.5636ZM95.5636 22.976L94.7283 23.5257L96.5636 26.3149V22.976H95.5636ZM81.3396 1.36L82.175 0.810301L81.8787 0.359997H81.3396V1.36ZM72.0436 1.36V0.359997H71.0436V1.36H72.0436ZM72.0436 40H71.0436V41H72.0436V40ZM80.9476 40V41H81.9476V40H80.9476ZM80.9476 16.872L81.7828 16.322L79.9476 13.5355V16.872H80.9476ZM96.1796 40L95.3445 40.55L95.6408 41H96.1796V40ZM105.468 40V1.36H103.468V40H105.468ZM104.468 0.359997H95.5636V2.36H104.468V0.359997ZM94.5636 1.36V22.976H96.5636V1.36H94.5636ZM96.399 22.4263L82.175 0.810301L80.5043 1.90969L94.7283 23.5257L96.399 22.4263ZM81.3396 0.359997H72.0436V2.36H81.3396V0.359997ZM71.0436 1.36V40H73.0436V1.36H71.0436ZM72.0436 41H80.9476V39H72.0436V41ZM81.9476 40V16.872H79.9476V40H81.9476ZM80.1125 17.422L95.3445 40.55L97.0148 39.45L81.7828 16.322L80.1125 17.422ZM96.1796 41H104.468V39H96.1796V41ZM111.528 1.36V0.359997H110.528V1.36H111.528ZM111.528 40H110.528V41H111.528V40ZM121.104 32.552H120.104V33.552H121.104V32.552ZM121.104 8.808V7.808H120.104V8.808H121.104ZM146.296 20.624C146.296 14.6783 144.465 9.58226 140.789 5.97339C137.113 2.36523 131.712 0.359997 124.8 0.359997V2.36C131.328 2.36 136.175 4.24677 139.387 7.4006C142.599 10.5537 144.296 15.0897 144.296 20.624H146.296ZM124.8 0.359997H111.528V2.36H124.8V0.359997ZM110.528 1.36V40H112.528V1.36H110.528ZM111.528 41H125.08V39H111.528V41ZM125.08 41C131.808 41 137.137 38.96 140.787 35.3256C144.435 31.6923 146.296 26.5732 146.296 20.624H144.296C144.296 26.1548 142.573 30.7237 139.375 33.9084C136.179 37.092 131.4 39 125.08 39V41ZM134.664 20.68C134.664 24.6627 133.643 27.3369 131.972 29.0195C130.303 30.7013 127.826 31.552 124.576 31.552V33.552C128.158 33.552 131.225 32.6107 133.392 30.4285C135.557 28.2471 136.664 24.9852 136.664 20.68H134.664ZM124.576 31.552H121.104V33.552H124.576V31.552ZM122.104 32.552V8.808H120.104V32.552H122.104ZM121.104 9.808H124.576V7.808H121.104V9.808ZM124.576 9.808C127.665 9.808 130.153 10.6896 131.87 12.4061C133.585 14.1209 134.664 16.8037 134.664 20.68H136.664C136.664 16.4363 135.475 13.1831 133.284 10.9919C131.095 8.80236 128.039 7.808 124.576 7.808V9.808ZM175.596 40V41H176.596V40H175.596ZM175.596 32.328H176.596V31.328H175.596V32.328ZM160.42 32.328H159.42V33.328H160.42V32.328ZM160.42 23.984V22.984H159.42V23.984H160.42ZM172.852 23.984V24.984H174.021L173.84 23.8298L172.852 23.984ZM171.62 16.088L172.608 15.9338L172.476 15.088H171.62V16.088ZM160.42 16.088H159.42V17.088H160.42V16.088ZM160.42 9.032V8.032H159.42V9.032H160.42ZM175.092 9.032V10.032H176.092V9.032H175.092ZM175.092 1.36H176.092V0.359997H175.092V1.36ZM151.012 1.36V0.359997H150.012V1.36H151.012ZM151.012 40H150.012V41H151.012V40ZM176.596 40V32.328H174.596V40H176.596ZM175.596 31.328H160.42V33.328H175.596V31.328ZM161.42 32.328V23.984H159.42V32.328H161.42ZM160.42 24.984H172.852V22.984H160.42V24.984ZM173.84 23.8298L172.608 15.9338L170.632 16.2422L171.864 24.1382L173.84 23.8298ZM171.62 15.088H160.42V17.088H171.62V15.088ZM161.42 16.088V9.032H159.42V16.088H161.42ZM160.42 10.032H175.092V8.032H160.42V10.032ZM176.092 9.032V1.36H174.092V9.032H176.092ZM175.092 0.359997H151.012V2.36H175.092V0.359997ZM150.012 1.36V40H152.012V1.36H150.012ZM151.012 41H175.596V39H151.012V41ZM194.981 16.2L194.623 17.1336L194.63 17.1363L194.637 17.1389L194.981 16.2ZM203.493 11.552L202.991 12.4168L204.224 13.1327L204.477 11.7297L203.493 11.552ZM204.949 3.488L205.933 3.66568L206.068 2.91819L205.384 2.58765L204.949 3.488ZM191.173 24.208L190.815 25.1415L190.817 25.1423L191.173 24.208ZM180.813 29.36L181.285 28.4783L180.062 27.8236L179.827 29.1912L180.813 29.36ZM179.413 37.536L178.427 37.3672L178.298 38.1256L178.997 38.4455L179.413 37.536ZM207.741 28.352C207.741 25.0574 206.829 22.5166 204.717 20.4126C202.664 18.3675 199.548 16.8095 195.325 15.2611L194.637 17.1389C198.814 18.6705 201.578 20.1085 203.305 21.8294C204.974 23.4914 205.741 25.4866 205.741 28.352H207.741ZM195.339 15.2664C192.92 14.3378 191.596 13.687 190.87 13.0897C190.53 12.8097 190.356 12.568 190.256 12.3446C190.155 12.1173 190.101 11.8396 190.101 11.44H188.101C188.101 12.0204 188.18 12.5966 188.429 13.1569C188.68 13.721 189.072 14.2003 189.6 14.6343C190.61 15.465 192.227 16.2142 194.623 17.1336L195.339 15.2664ZM190.101 11.44C190.101 10.8342 190.322 10.3863 190.763 10.0579C191.242 9.70083 192.079 9.416 193.413 9.416V7.416C191.835 7.416 190.516 7.74717 189.568 8.45411C188.58 9.18967 188.101 10.2538 188.101 11.44H190.101ZM193.413 9.416C196.156 9.416 199.623 10.4613 202.991 12.4168L203.995 10.6872C200.419 8.61066 196.606 7.416 193.413 7.416V9.416ZM204.477 11.7297L205.933 3.66568L203.965 3.31032L202.509 11.3743L204.477 11.7297ZM205.384 2.58765C201.898 0.902566 198.502 -0.0880008 193.301 -0.0880008V1.912C198.18 1.912 201.28 2.82543 204.514 4.38835L205.384 2.58765ZM193.301 -0.0880008C189.437 -0.0880008 185.893 0.950337 183.292 3.05349C180.667 5.17702 179.085 8.32416 179.085 12.336H181.085C181.085 8.89983 182.415 6.33497 184.55 4.60851C186.71 2.86166 189.773 1.912 193.301 1.912V-0.0880008ZM179.085 12.336C179.085 15.7333 179.992 18.236 182.025 20.2615C183.994 22.2223 186.945 23.6553 190.815 25.1415L191.532 23.2745C187.674 21.7927 185.08 20.4817 183.437 18.8445C181.858 17.272 181.085 15.3227 181.085 12.336H179.085ZM190.817 25.1423C193.548 26.1843 195.037 26.9051 195.853 27.5722C196.237 27.8858 196.435 28.1601 196.549 28.4203C196.665 28.6864 196.725 29.0099 196.725 29.472H198.725C198.725 28.8421 198.645 28.2206 198.381 27.6187C198.115 27.0109 197.694 26.4942 197.119 26.0238C196.017 25.1229 194.23 24.3037 191.53 23.2737L190.817 25.1423ZM196.725 29.472C196.725 30.3025 196.401 30.8637 195.852 31.2534C195.259 31.6737 194.326 31.944 193.077 31.944V33.944C194.573 33.944 195.963 33.6263 197.009 32.8846C198.097 32.1123 198.725 30.9375 198.725 29.472H196.725ZM193.077 31.944C189.437 31.944 185.179 30.5624 181.285 28.4783L180.341 30.2417C184.399 32.4136 188.989 33.944 193.077 33.944V31.944ZM179.827 29.1912L178.427 37.3672L180.399 37.7048L181.799 29.5288L179.827 29.1912ZM178.997 38.4455C183.038 40.2927 187.547 41.448 192.909 41.448V39.448C187.855 39.448 183.628 38.3633 179.829 36.6265L178.997 38.4455ZM192.909 41.448C196.889 41.448 200.592 40.4913 203.322 38.3347C206.087 36.1505 207.741 32.8232 207.741 28.352H205.741C205.741 32.2808 204.315 35.0015 202.082 36.7653C199.814 38.5567 196.601 39.448 192.909 39.448V41.448ZM244.47 40V41H245.47V40H244.47ZM244.47 1.36H245.47V0.359997H244.47V1.36ZM234.894 1.36V0.359997H233.894V1.36H234.894ZM234.894 15.808V16.808H235.894V15.808H234.894ZM221.51 15.808H220.51V16.808H221.51V15.808ZM221.51 1.36H222.51V0.359997H221.51V1.36ZM211.934 1.36V0.359997H210.934V1.36H211.934ZM211.934 40H210.934V41H211.934V40ZM221.51 40V41H222.51V40H221.51ZM221.51 24.208V23.208H220.51V24.208H221.51ZM234.894 24.208H235.894V23.208H234.894V24.208ZM234.894 40H233.894V41H234.894V40ZM245.47 40V1.36H243.47V40H245.47ZM244.47 0.359997H234.894V2.36H244.47V0.359997ZM233.894 1.36V15.808H235.894V1.36H233.894ZM234.894 14.808H221.51V16.808H234.894V14.808ZM222.51 15.808V1.36H220.51V15.808H222.51ZM221.51 0.359997H211.934V2.36H221.51V0.359997ZM210.934 1.36V40H212.934V1.36H210.934ZM211.934 41H221.51V39H211.934V41ZM222.51 40V24.208H220.51V40H222.51ZM221.51 25.208H234.894V23.208H221.51V25.208ZM233.894 24.208V40H235.894V24.208H233.894ZM234.894 41H244.47V39H234.894V41ZM76.5827 81.2L76.2244 82.1336L76.2314 82.1363L76.2384 82.1389L76.5827 81.2ZM85.0947 76.552L84.5926 77.4168L85.8255 78.1327L86.0788 76.7297L85.0947 76.552ZM86.5507 68.488L87.5348 68.6657L87.6697 67.9182L86.9859 67.5877L86.5507 68.488ZM72.7747 89.208L72.4162 90.1415L72.4183 90.1423L72.7747 89.208ZM62.4147 94.36L62.8866 93.4783L61.6632 92.8236L61.429 94.1912L62.4147 94.36ZM61.0147 102.536L60.029 102.367L59.8992 103.126L60.5989 103.445L61.0147 102.536ZM89.3427 93.352C89.3427 90.0574 88.4303 87.5166 86.3185 85.4126C84.2658 83.3675 81.1498 81.8095 76.9269 80.2611L76.2384 82.1389C80.4156 83.6705 83.1796 85.1085 84.9069 86.8294C86.5751 88.4914 87.3427 90.4866 87.3427 93.352H89.3427ZM76.9409 80.2664C74.5211 79.3378 73.198 78.687 72.472 78.0897C72.1315 77.8097 71.9573 77.568 71.858 77.3446C71.757 77.1173 71.7027 76.8396 71.7027 76.44H69.7027C69.7027 77.0204 69.7814 77.5966 70.0304 78.1569C70.2811 78.721 70.6739 79.2003 71.2014 79.6343C72.2113 80.465 73.8283 81.2142 76.2244 82.1336L76.9409 80.2664ZM71.7027 76.44C71.7027 75.8342 71.9234 75.3863 72.3642 75.0579C72.8434 74.7008 73.6808 74.416 75.0147 74.416V72.416C73.4366 72.416 72.118 72.7472 71.1692 73.4541C70.182 74.1897 69.7027 75.2538 69.7027 76.44H71.7027ZM75.0147 74.416C77.7578 74.416 81.2248 75.4613 84.5926 77.4168L85.5968 75.6872C82.0205 73.6107 78.2075 72.416 75.0147 72.416V74.416ZM86.0788 76.7297L87.5348 68.6657L85.5666 68.3103L84.1106 76.3743L86.0788 76.7297ZM86.9859 67.5877C83.4995 65.9026 80.1034 64.912 74.9027 64.912V66.912C79.782 66.912 82.8819 67.8254 86.1155 69.3883L86.9859 67.5877ZM74.9027 64.912C71.0388 64.912 67.4941 65.9503 64.8938 68.0535C62.2684 70.177 60.6867 73.3242 60.6867 77.336H62.6867C62.6867 73.8998 64.017 71.335 66.1516 69.6085C68.3113 67.8617 71.3746 66.912 74.9027 66.912V64.912ZM60.6867 77.336C60.6867 80.7333 61.5936 83.236 63.627 85.2615C65.5954 87.2223 68.5463 88.6553 72.4162 90.1415L73.1332 88.2745C69.2751 86.7927 66.6819 85.4817 65.0384 83.8445C63.4598 82.272 62.6867 80.3227 62.6867 77.336H60.6867ZM72.4183 90.1423C75.1499 91.1843 76.6387 91.9051 77.4548 92.5722C77.8384 92.8858 78.0368 93.1601 78.1507 93.4203C78.2671 93.6864 78.3267 94.0099 78.3267 94.472H80.3267C80.3267 93.8421 80.2463 93.2206 79.983 92.6187C79.7171 92.0109 79.296 91.4942 78.7206 91.0238C77.6186 90.1229 75.8315 89.3037 73.1311 88.2737L72.4183 90.1423ZM78.3267 94.472C78.3267 95.3025 78.0024 95.8637 77.4531 96.2534C76.8607 96.6737 75.9272 96.944 74.6787 96.944V98.944C76.1742 98.944 77.5647 98.6263 78.6103 97.8846C79.699 97.1123 80.3267 95.9375 80.3267 94.472H78.3267ZM74.6787 96.944C71.0385 96.944 66.7805 95.5624 62.8866 93.4783L61.9428 95.2417C66.0008 97.4136 70.5909 98.944 74.6787 98.944V96.944ZM61.429 94.1912L60.029 102.367L62.0003 102.705L63.4003 94.5288L61.429 94.1912ZM60.5989 103.445C64.6398 105.293 69.149 106.448 74.5107 106.448V104.448C69.4563 104.448 65.2296 103.363 61.4304 101.627L60.5989 103.445ZM74.5107 106.448C78.4904 106.448 82.1934 105.491 84.9235 103.335C87.6886 101.151 89.3427 97.8232 89.3427 93.352H87.3427C87.3427 97.2808 85.9168 100.001 83.6838 101.765C81.416 103.557 78.203 104.448 74.5107 104.448V106.448ZM125.456 66.36H126.456V65.36H125.456V66.36ZM115.824 66.36V65.36H114.824V66.36H115.824ZM102.72 66.36H103.72V65.36H102.72V66.36ZM93.0878 66.36V65.36H92.0878V66.36H93.0878ZM126.456 89.656V66.36H124.456V89.656H126.456ZM125.456 65.36H115.824V67.36H125.456V65.36ZM114.824 66.36V89.768H116.824V66.36H114.824ZM114.824 89.768C114.824 92.104 114.304 93.7886 113.413 94.8734C112.55 95.9251 111.223 96.552 109.272 96.552V98.552C111.688 98.552 113.638 97.7509 114.959 96.1426C116.252 94.5674 116.824 92.36 116.824 89.768H114.824ZM109.272 96.552C107.358 96.552 106.03 95.9177 105.155 94.842C104.253 93.7331 103.72 92.0167 103.72 89.656H101.72C101.72 92.2792 102.307 94.5109 103.603 96.104C104.926 97.7303 106.873 98.552 109.272 98.552V96.552ZM103.72 89.656V66.36H101.72V89.656H103.72ZM102.72 65.36H93.0878V67.36H102.72V65.36ZM92.0878 66.36V89.712H94.0878V66.36H92.0878ZM92.0878 89.712C92.0878 95.3255 93.8103 99.5942 96.8954 102.451C99.9675 105.295 104.257 106.616 109.16 106.616V104.616C104.598 104.616 100.852 103.389 98.2542 100.983C95.6693 98.5898 94.0878 94.9065 94.0878 89.712H92.0878ZM109.16 106.616C114.013 106.616 118.352 105.264 121.488 102.407C124.639 99.5372 126.456 95.2576 126.456 89.656H124.456C124.456 94.8064 122.8 98.5068 120.141 100.929C117.467 103.364 113.658 104.616 109.16 104.616V106.616ZM152.811 84.56L152.403 83.6469L150.012 84.7143L152.506 85.5124L152.811 84.56ZM132.091 66.36V65.36H131.091V66.36H132.091ZM132.091 105H131.091V106H132.091V105ZM141.163 81.984H140.163V82.984H141.163V81.984ZM141.163 73.248V72.248H140.163V73.248H141.163ZM141.163 98.112H140.163V99.112H141.163V98.112ZM141.163 88.144V87.144H140.163V88.144H141.163ZM160.811 93.856C160.811 91.0368 160.056 88.8126 158.66 87.105C157.274 85.4105 155.332 84.3168 153.115 83.6076L152.506 85.5124C154.489 86.1472 156.047 87.0695 157.111 88.371C158.165 89.6594 158.811 91.4112 158.811 93.856H160.811ZM153.218 85.4731C156.621 83.9539 159.355 81.0714 159.355 76.384H157.355C157.355 80.0966 155.272 82.3661 152.403 83.6469L153.218 85.4731ZM159.355 76.384C159.355 72.9993 158.178 70.1801 155.72 68.2357C153.299 66.321 149.768 65.36 145.251 65.36V67.36C149.525 67.36 152.546 68.275 154.479 69.8043C156.375 71.3039 157.355 73.4967 157.355 76.384H159.355ZM145.251 65.36H132.091V67.36H145.251V65.36ZM131.091 66.36V105H133.091V66.36H131.091ZM132.091 106H144.971V104H132.091V106ZM144.971 106C149.701 106 153.65 105.058 156.443 103.03C159.285 100.967 160.811 97.8639 160.811 93.856H158.811C158.811 97.2961 157.536 99.7653 155.268 101.412C152.951 103.094 149.48 104 144.971 104V106ZM148.843 77.448C148.843 78.6073 148.458 79.4413 147.796 80.0035C147.11 80.5851 145.998 80.984 144.355 80.984V82.984C146.295 82.984 147.927 82.5149 149.089 81.5285C150.275 80.5227 150.843 79.0887 150.843 77.448H148.843ZM144.355 80.984H141.163V82.984H144.355V80.984ZM142.163 81.984V73.248H140.163V81.984H142.163ZM141.163 74.248H144.579V72.248H141.163V74.248ZM144.579 74.248C146.301 74.248 147.345 74.629 147.948 75.143C148.522 75.6329 148.843 76.3695 148.843 77.448H150.843C150.843 75.9505 150.379 74.5871 149.245 73.621C148.14 72.679 146.552 72.248 144.579 72.248V74.248ZM149.795 93.24C149.795 94.6123 149.335 95.5147 148.577 96.1049C147.777 96.7275 146.504 97.112 144.691 97.112V99.112C146.741 99.112 148.52 98.6845 149.806 97.6831C151.134 96.6493 151.795 95.1157 151.795 93.24H149.795ZM144.691 97.112H141.163V99.112H144.691V97.112ZM142.163 98.112V88.144H140.163V98.112H142.163ZM141.163 89.144H144.579V87.144H141.163V89.144ZM144.579 89.144C146.472 89.144 147.765 89.5547 148.568 90.2078C149.335 90.8319 149.795 91.7912 149.795 93.24H151.795C151.795 91.3288 151.162 89.7401 149.829 88.6562C148.532 87.6013 146.717 87.144 144.579 87.144V89.144ZM189.596 105V106H190.596V105H189.596ZM189.596 97.328H190.596V96.328H189.596V97.328ZM174.42 97.328H173.42V98.328H174.42V97.328ZM174.42 88.984V87.984H173.42V88.984H174.42ZM186.852 88.984V89.984H188.021L187.84 88.8298L186.852 88.984ZM185.62 81.088L186.608 80.9338L186.476 80.088H185.62V81.088ZM174.42 81.088H173.42V82.088H174.42V81.088ZM174.42 74.032V73.032H173.42V74.032H174.42ZM189.092 74.032V75.032H190.092V74.032H189.092ZM189.092 66.36H190.092V65.36H189.092V66.36ZM165.012 66.36V65.36H164.012V66.36H165.012ZM165.012 105H164.012V106H165.012V105ZM190.596 105V97.328H188.596V105H190.596ZM189.596 96.328H174.42V98.328H189.596V96.328ZM175.42 97.328V88.984H173.42V97.328H175.42ZM174.42 89.984H186.852V87.984H174.42V89.984ZM187.84 88.8298L186.608 80.9338L184.632 81.2422L185.864 89.1382L187.84 88.8298ZM185.62 80.088H174.42V82.088H185.62V80.088ZM175.42 81.088V74.032H173.42V81.088H175.42ZM174.42 75.032H189.092V73.032H174.42V75.032ZM190.092 74.032V66.36H188.092V74.032H190.092ZM189.092 65.36H165.012V67.36H189.092V65.36ZM164.012 66.36V105H166.012V66.36H164.012ZM165.012 106H189.596V104H165.012V106ZM194.981 66.36V65.36H193.981V66.36H194.981ZM194.981 105H193.981V106H194.981V105ZM204.557 97.552H203.557V98.552H204.557V97.552ZM204.557 73.808V72.808H203.557V73.808H204.557ZM229.749 85.624C229.749 79.6783 227.918 74.5823 224.242 70.9734C220.566 67.3652 215.166 65.36 208.253 65.36V67.36C214.781 67.36 219.628 69.2468 222.841 72.4006C226.052 75.5537 227.749 80.0897 227.749 85.624H229.749ZM208.253 65.36H194.981V67.36H208.253V65.36ZM193.981 66.36V105H195.981V66.36H193.981ZM194.981 106H208.533V104H194.981V106ZM208.533 106C215.261 106 220.59 103.96 224.24 100.326C227.888 96.6923 229.749 91.5732 229.749 85.624H227.749C227.749 91.1548 226.026 95.7237 222.828 98.9084C219.632 102.092 214.853 104 208.533 104V106ZM218.117 85.68C218.117 89.6627 217.096 92.3369 215.425 94.0195C213.756 95.7013 211.279 96.552 208.029 96.552V98.552C211.611 98.552 214.678 97.6107 216.845 95.4285C219.01 93.2471 220.117 89.9852 220.117 85.68H218.117ZM208.029 96.552H204.557V98.552H208.029V96.552ZM205.557 97.552V73.808H203.557V97.552H205.557ZM204.557 74.808H208.029V72.808H204.557V74.808ZM208.029 74.808C211.118 74.808 213.607 75.6896 215.323 77.4061C217.038 79.1209 218.117 81.8037 218.117 85.68H220.117C220.117 81.4363 218.928 78.1831 216.737 75.9919C214.548 73.8024 211.492 72.808 208.029 72.808V74.808ZM244.266 105V106H245.266V105H244.266ZM244.266 66.36H245.266V65.36H244.266V66.36ZM234.69 66.36V65.36H233.69V66.36H234.69ZM234.69 105H233.69V106H234.69V105ZM245.266 105V66.36H243.266V105H245.266ZM244.266 65.36H234.69V67.36H244.266V65.36ZM233.69 66.36V105H235.69V66.36H233.69ZM234.69 106H244.266V104H234.69V106Z" fill="url(#paint0_linear_236_41)"/>
<defs>
<linearGradient id="paint0_linear_236_41" x1="123" y1="-14" x2="123" y2="116" gradientUnits="userSpaceOnUse">
<stop stop-color="white"/>
<stop offset="0.59779" stop-color="white" stop-opacity="0.493673"/>
<stop offset="1" stop-color="white" stop-opacity="0"/>
</linearGradient>
</defs>
</svg>
