<svg width="453" height="195" viewBox="0 0 453 195" fill="none" xmlns="http://www.w3.org/2000/svg">
<path d="M29.0364 28.8L27.9616 31.6009L27.9826 31.6089L28.0036 31.6166L29.0364 28.8ZM44.8444 20.168L43.338 22.7624L47.0367 24.91L47.7966 20.701L44.8444 20.168ZM47.5484 5.192L50.5006 5.72505L50.9055 3.48258L48.8539 2.49095L47.5484 5.192ZM21.9644 43.672L20.8888 46.4726L20.8952 46.475L21.9644 43.672ZM2.72438 53.24L4.14001 50.595L0.469967 48.6308L-0.23259 52.7337L2.72438 53.24ZM0.124374 68.424L-2.83259 67.9177L-3.22216 70.1928L-1.12291 71.1524L0.124374 68.424ZM53.8764 51.368C53.8764 45.0043 52.0992 39.9737 47.9238 35.8137C43.9257 31.8305 37.9377 28.8685 30.0691 25.9834L28.0036 31.6166C35.735 34.4515 40.667 37.0535 43.689 40.0643C46.5336 42.8983 47.8764 46.2917 47.8764 51.368H53.8764ZM30.1111 25.9991C25.6036 24.2695 23.3144 23.1169 22.1282 22.1411C21.6029 21.709 21.4042 21.396 21.3063 21.1758C21.2033 20.944 21.1164 20.5989 21.1164 19.96H15.1164C15.1164 21.1411 15.2765 22.382 15.8234 23.6127C16.3756 24.855 17.2299 25.881 18.3166 26.7749C20.3543 28.4511 23.5252 29.8985 27.9616 31.6009L30.1111 25.9991ZM21.1164 19.96C21.1164 19.1666 21.3784 18.687 21.8848 18.3096C22.5064 17.8465 23.7868 17.344 26.1244 17.344V11.344C23.054 11.344 20.3303 11.9855 18.2999 13.4983C16.1544 15.097 15.1164 17.4254 15.1164 19.96H21.1164ZM26.1244 17.344C30.9618 17.344 37.2028 19.2 43.338 22.7624L46.3508 17.5736C39.5899 13.648 32.3109 11.344 26.1244 11.344V17.344ZM47.7966 20.701L50.5006 5.72505L44.5961 4.65895L41.8921 19.635L47.7966 20.701ZM48.8539 2.49095C42.2347 -0.7083 35.7586 -2.592 25.9164 -2.592V3.408C34.7942 3.408 40.382 5.06029 46.2429 7.89304L48.8539 2.49095ZM25.9164 -2.592C18.5488 -2.592 11.6905 -0.612988 6.60977 3.49646C1.45338 7.66707 -1.62762 13.8445 -1.62762 21.624H4.37238C4.37238 15.5715 6.69937 11.1409 10.383 8.16153C14.1422 5.12098 19.556 3.408 25.9164 3.408V-2.592ZM-1.62762 21.624C-1.62762 28.168 0.133171 33.1321 4.16918 37.1524C8.01059 40.979 13.6951 43.7098 20.8888 46.4726L23.04 40.8714C15.8816 38.1222 11.2702 35.757 8.40357 32.9016C5.73158 30.2399 4.37238 26.936 4.37238 21.624H-1.62762ZM20.8952 46.475C25.9859 48.4168 28.5805 49.6993 29.9326 50.8046C30.5354 51.2975 30.7768 51.6684 30.9013 51.953C31.0335 52.2551 31.1324 52.6858 31.1324 53.448H37.1324C37.1324 52.1822 36.9713 50.8579 36.3982 49.548C35.8175 48.2206 34.9083 47.1225 33.7302 46.1594C31.5203 44.3527 28.0308 42.7752 23.0336 40.869L20.8952 46.475ZM31.1324 53.448C31.1324 54.6276 30.7035 55.3191 29.9916 55.8242C29.1503 56.421 27.6779 56.896 25.5004 56.896V62.896C28.4189 62.896 31.2625 62.279 33.4632 60.7178C35.7933 59.0649 37.1324 56.5324 37.1324 53.448H31.1324ZM25.5004 56.896C18.9959 56.896 11.2779 54.4153 4.14001 50.595L1.30875 55.885C8.93881 59.9687 17.6529 62.896 25.5004 62.896V56.896ZM-0.23259 52.7337L-2.83259 67.9177L3.08134 68.9303L5.68134 53.7463L-0.23259 52.7337ZM-1.12291 71.1524C6.51978 74.6462 15.0554 76.832 25.1884 76.832V70.832C15.9774 70.832 8.28897 68.8578 1.37165 65.6956L-1.12291 71.1524ZM25.1884 76.832C32.7435 76.832 39.9005 75.0179 45.2349 70.8041C50.6742 66.5076 53.8764 59.9817 53.8764 51.368H47.8764C47.8764 58.3543 45.3586 63.0604 41.5158 66.0959C37.5683 69.2141 31.8813 70.832 25.1884 70.832V76.832ZM124.304 70.816L124.786 73.777L128.341 73.1984L127.13 69.807L124.304 70.816ZM99.3444 0.927998L102.17 -0.0810108L101.459 -2.072H99.3444V0.927998ZM79.7924 0.927998V-2.072H77.6797L76.9679 -0.082819L79.7924 0.927998ZM54.0004 73L51.1759 71.9892L49.7405 76H54.0004V73ZM71.3684 73V76H73.5259L74.2125 73.9547L71.3684 73ZM76.3604 58.128V55.128H74.2029L73.5164 57.1734L76.3604 58.128ZM101.008 58.128L103.843 57.1454L103.144 55.128H101.008V58.128ZM106.416 73.728L103.582 74.7106L104.408 77.0944L106.898 76.689L106.416 73.728ZM96.7444 44.192V47.192H100.874L99.5975 43.2647L96.7444 44.192ZM80.5204 44.192L77.6673 43.2647L76.391 47.192H80.5204V44.192ZM88.6324 19.232L91.4855 18.3047L88.6324 9.52596L85.7793 18.3047L88.6324 19.232ZM127.13 69.807L102.17 -0.0810108L96.5192 1.93701L121.479 71.825L127.13 69.807ZM99.3444 -2.072H79.7924V3.928H99.3444V-2.072ZM76.9679 -0.082819L51.1759 71.9892L56.825 74.0108L82.617 1.93881L76.9679 -0.082819ZM54.0004 76H71.3684V70H54.0004V76ZM74.2125 73.9547L79.2045 59.0826L73.5164 57.1734L68.5244 72.0453L74.2125 73.9547ZM76.3604 61.128H101.008V55.128H76.3604V61.128ZM98.1739 59.1106L103.582 74.7106L109.251 72.7454L103.843 57.1454L98.1739 59.1106ZM106.898 76.689L124.786 73.777L123.822 67.855L105.934 70.767L106.898 76.689ZM96.7444 41.192H80.5204V47.192H96.7444V41.192ZM83.3735 45.1193L91.4855 20.1593L85.7793 18.3047L77.6673 43.2647L83.3735 45.1193ZM85.7793 20.1593L93.8913 45.1193L99.5975 43.2647L91.4855 18.3047L85.7793 20.1593ZM192.44 73V76H195.44V73H192.44ZM192.44 1.23999H195.44V-1.76001H192.44V1.23999ZM175.904 1.23999V-1.76001H172.904V1.23999H175.904ZM175.904 41.384L173.398 43.0331L178.904 51.4006V41.384H175.904ZM149.488 1.23999L151.994 -0.409094L151.105 -1.76001H149.488V1.23999ZM132.224 1.23999V-1.76001H129.224V1.23999H132.224ZM132.224 73H129.224V76H132.224V73ZM148.76 73V76H151.76V73H148.76ZM148.76 30.048L151.265 28.3979L145.76 20.0386V30.048H148.76ZM177.048 73L174.542 74.6501L175.431 76H177.048V73ZM195.44 73V1.23999H189.44V73H195.44ZM192.44 -1.76001H175.904V4.23999H192.44V-1.76001ZM172.904 1.23999V41.384H178.904V1.23999H172.904ZM178.41 39.7349L151.994 -0.409094L146.982 2.88908L173.398 43.0331L178.41 39.7349ZM149.488 -1.76001H132.224V4.23999H149.488V-1.76001ZM129.224 1.23999V73H135.224V1.23999H129.224ZM132.224 76H148.76V70H132.224V76ZM151.76 73V30.048H145.76V73H151.76ZM146.254 31.6981L174.542 74.6501L179.553 71.3499L151.265 28.3979L146.254 31.6981ZM177.048 76H192.44V70H177.048V76ZM205.552 1.23999V-1.76001H202.552V1.23999H205.552ZM205.552 73H202.552V76H205.552V73ZM223.336 59.168H220.336V62.168H223.336V59.168ZM223.336 15.072V12.072H220.336V15.072H223.336ZM271.264 37.016C271.264 25.739 267.786 15.9548 260.694 8.99219C253.603 2.03168 243.257 -1.76001 230.2 -1.76001V4.23999C242.103 4.23999 250.789 7.67631 256.49 13.2738C262.19 18.8692 265.264 26.973 265.264 37.016H271.264ZM230.2 -1.76001H205.552V4.23999H230.2V-1.76001ZM202.552 1.23999V73H208.552V1.23999H202.552ZM205.552 76H230.72V70H205.552V76ZM230.72 76C243.448 76 253.66 72.136 260.696 65.1287C267.728 58.125 271.264 48.3036 271.264 37.016H265.264C265.264 47.0484 262.144 55.219 256.462 60.8773C250.784 66.532 242.224 70 230.72 70V76ZM247.376 37.12C247.376 44.3323 245.528 48.9626 242.709 51.8024C239.892 54.6398 235.63 56.168 229.784 56.168V62.168C236.626 62.168 242.66 60.3682 246.967 56.0296C251.272 51.6934 253.376 45.2997 253.376 37.12H247.376ZM229.784 56.168H223.336V62.168H229.784V56.168ZM226.336 59.168V15.072H220.336V59.168H226.336ZM223.336 18.072H229.784V12.072H223.336V18.072ZM229.784 18.072C235.308 18.072 239.604 19.6449 242.522 22.5623C245.434 25.4746 247.376 30.131 247.376 37.12H253.376C253.376 29.029 251.106 22.6614 246.764 18.3197C242.428 13.9831 236.428 12.072 229.784 12.072V18.072ZM324.536 73V76H327.536V73H324.536ZM324.536 58.752H327.536V55.752H324.536V58.752ZM296.352 58.752H293.352V61.752H296.352V58.752ZM296.352 43.256V40.256H293.352V43.256H296.352ZM319.44 43.256V46.256H322.945L322.404 42.7935L319.44 43.256ZM317.152 28.592L320.116 28.1295L319.72 25.592H317.152V28.592ZM296.352 28.592H293.352V31.592H296.352V28.592ZM296.352 15.488V12.488H293.352V15.488H296.352ZM323.6 15.488V18.488H326.6V15.488H323.6ZM323.6 1.23999H326.6V-1.76001H323.6V1.23999ZM278.88 1.23999V-1.76001H275.88V1.23999H278.88ZM278.88 73H275.88V76H278.88V73ZM327.536 73V58.752H321.536V73H327.536ZM324.536 55.752H296.352V61.752H324.536V55.752ZM299.352 58.752V43.256H293.352V58.752H299.352ZM296.352 46.256H319.44V40.256H296.352V46.256ZM322.404 42.7935L320.116 28.1295L314.188 29.0545L316.476 43.7185L322.404 42.7935ZM317.152 25.592H296.352V31.592H317.152V25.592ZM299.352 28.592V15.488H293.352V28.592H299.352ZM296.352 18.488H323.6V12.488H296.352V18.488ZM326.6 15.488V1.23999H320.6V15.488H326.6ZM323.6 -1.76001H278.88V4.23999H323.6V-1.76001ZM275.88 1.23999V73H281.88V1.23999H275.88ZM278.88 76H324.536V70H278.88V76ZM360.536 28.8L359.462 31.6009L359.483 31.6089L359.504 31.6166L360.536 28.8ZM376.344 20.168L374.838 22.7624L378.537 24.91L379.297 20.701L376.344 20.168ZM379.048 5.192L382.001 5.72505L382.406 3.48258L380.354 2.49095L379.048 5.192ZM353.464 43.672L352.389 46.4726L352.395 46.475L353.464 43.672ZM334.224 53.24L335.64 50.595L331.97 48.6308L331.267 52.7337L334.224 53.24ZM331.624 68.424L328.667 67.9177L328.278 70.1928L330.377 71.1524L331.624 68.424ZM385.376 51.368C385.376 45.0043 383.599 39.9737 379.424 35.8137C375.426 31.8305 369.438 28.8685 361.569 25.9834L359.504 31.6166C367.235 34.4515 372.167 37.0535 375.189 40.0643C378.034 42.8983 379.376 46.2917 379.376 51.368H385.376ZM361.611 25.9991C357.104 24.2695 354.814 23.1169 353.628 22.1411C353.103 21.709 352.904 21.396 352.806 21.1758C352.703 20.944 352.616 20.5989 352.616 19.96H346.616C346.616 21.1411 346.776 22.382 347.323 23.6127C347.876 24.855 348.73 25.881 349.817 26.7749C351.854 28.4511 355.025 29.8985 359.462 31.6009L361.611 25.9991ZM352.616 19.96C352.616 19.1666 352.878 18.687 353.385 18.3096C354.006 17.8465 355.287 17.344 357.624 17.344V11.344C354.554 11.344 351.83 11.9855 349.8 13.4983C347.654 15.097 346.616 17.4254 346.616 19.96H352.616ZM357.624 17.344C362.462 17.344 368.703 19.2 374.838 22.7624L377.851 17.5736C371.09 13.648 363.811 11.344 357.624 11.344V17.344ZM379.297 20.701L382.001 5.72505L376.096 4.65895L373.392 19.635L379.297 20.701ZM380.354 2.49095C373.735 -0.7083 367.259 -2.592 357.416 -2.592V3.408C366.294 3.408 371.882 5.06029 377.743 7.89304L380.354 2.49095ZM357.416 -2.592C350.049 -2.592 343.191 -0.612988 338.11 3.49646C332.953 7.66707 329.872 13.8445 329.872 21.624H335.872C335.872 15.5715 338.199 11.1409 341.883 8.16153C345.642 5.12098 351.056 3.408 357.416 3.408V-2.592ZM329.872 21.624C329.872 28.168 331.633 33.1321 335.669 37.1524C339.511 40.979 345.195 43.7098 352.389 46.4726L354.54 40.8714C347.382 38.1222 342.77 35.757 339.904 32.9016C337.232 30.2399 335.872 26.936 335.872 21.624H329.872ZM352.395 46.475C357.486 48.4168 360.081 49.6993 361.433 50.8046C362.035 51.2975 362.277 51.6684 362.401 51.953C362.533 52.2551 362.632 52.6858 362.632 53.448H368.632C368.632 52.1822 368.471 50.8579 367.898 49.548C367.317 48.2206 366.408 47.1225 365.23 46.1594C363.02 44.3527 359.531 42.7752 354.534 40.869L352.395 46.475ZM362.632 53.448C362.632 54.6276 362.203 55.3191 361.492 55.8242C360.65 56.421 359.178 56.896 357 56.896V62.896C359.919 62.896 362.762 62.279 364.963 60.7178C367.293 59.0649 368.632 56.5324 368.632 53.448H362.632ZM357 56.896C350.496 56.896 342.778 54.4153 335.64 50.595L332.809 55.885C340.439 59.9687 349.153 62.896 357 62.896V56.896ZM331.267 52.7337L328.667 67.9177L334.581 68.9303L337.181 53.7463L331.267 52.7337ZM330.377 71.1524C338.02 74.6462 346.555 76.832 356.688 76.832V70.832C347.477 70.832 339.789 68.8578 332.872 65.6956L330.377 71.1524ZM356.688 76.832C364.243 76.832 371.4 75.0179 376.735 70.8041C382.174 66.5076 385.376 59.9817 385.376 51.368H379.376C379.376 58.3543 376.859 63.0604 373.016 66.0959C369.068 69.2141 363.381 70.832 356.688 70.832V76.832ZM452.445 73V76H455.445V73H452.445ZM452.445 1.23999H455.445V-1.76001H452.445V1.23999ZM434.661 1.23999V-1.76001H431.661V1.23999H434.661ZM434.661 28.072V31.072H437.661V28.072H434.661ZM409.805 28.072H406.805V31.072H409.805V28.072ZM409.805 1.23999H412.805V-1.76001H409.805V1.23999ZM392.021 1.23999V-1.76001H389.021V1.23999H392.021ZM392.021 73H389.021V76H392.021V73ZM409.805 73V76H412.805V73H409.805ZM409.805 43.672V40.672H406.805V43.672H409.805ZM434.661 43.672H437.661V40.672H434.661V43.672ZM434.661 73H431.661V76H434.661V73ZM455.445 73V1.23999H449.445V73H455.445ZM452.445 -1.76001H434.661V4.23999H452.445V-1.76001ZM431.661 1.23999V28.072H437.661V1.23999H431.661ZM434.661 25.072H409.805V31.072H434.661V25.072ZM412.805 28.072V1.23999H406.805V28.072H412.805ZM409.805 -1.76001H392.021V4.23999H409.805V-1.76001ZM389.021 1.23999V73H395.021V1.23999H389.021ZM392.021 76H409.805V70H392.021V76ZM412.805 73V43.672H406.805V73H412.805ZM409.805 46.672H434.661V40.672H409.805V46.672ZM431.661 43.672V73H437.661V43.672H431.661ZM434.661 76H452.445V70H434.661V76ZM140.654 148.8L139.579 151.601L139.6 151.609L139.621 151.617L140.654 148.8ZM156.462 140.168L154.955 142.762L158.654 144.91L159.414 140.701L156.462 140.168ZM159.166 125.192L162.118 125.725L162.523 123.483L160.471 122.491L159.166 125.192ZM133.582 163.672L132.506 166.473L132.512 166.475L133.582 163.672ZM114.342 173.24L115.757 170.595L112.087 168.631L111.385 172.734L114.342 173.24ZM111.742 188.424L108.785 187.918L108.395 190.193L110.494 191.152L111.742 188.424ZM165.494 171.368C165.494 165.004 163.716 159.974 159.541 155.814C155.543 151.831 149.555 148.869 141.686 145.983L139.621 151.617C147.352 154.451 152.284 157.053 155.306 160.064C158.151 162.898 159.494 166.292 159.494 171.368H165.494ZM141.728 145.999C137.221 144.269 134.932 143.117 133.745 142.141C133.22 141.709 133.021 141.396 132.923 141.176C132.82 140.944 132.734 140.599 132.734 139.96H126.734C126.734 141.141 126.894 142.382 127.441 143.613C127.993 144.855 128.847 145.881 129.934 146.775C131.971 148.451 135.142 149.899 139.579 151.601L141.728 145.999ZM132.734 139.96C132.734 139.167 132.996 138.687 133.502 138.31C134.124 137.846 135.404 137.344 137.742 137.344V131.344C134.671 131.344 131.948 131.986 129.917 133.498C127.772 135.097 126.734 137.425 126.734 139.96H132.734ZM137.742 137.344C142.579 137.344 148.82 139.2 154.955 142.762L157.968 137.574C151.207 133.648 143.928 131.344 137.742 131.344V137.344ZM159.414 140.701L162.118 125.725L156.213 124.659L153.509 139.635L159.414 140.701ZM160.471 122.491C153.852 119.292 147.376 117.408 137.534 117.408V123.408C146.411 123.408 151.999 125.06 157.86 127.893L160.471 122.491ZM137.534 117.408C130.166 117.408 123.308 119.387 118.227 123.496C113.071 127.667 109.99 133.844 109.99 141.624H115.99C115.99 135.572 118.317 131.141 122 128.162C125.759 125.121 131.173 123.408 137.534 123.408V117.408ZM109.99 141.624C109.99 148.168 111.75 153.132 115.786 157.152C119.628 160.979 125.312 163.71 132.506 166.473L134.657 160.871C127.499 158.122 122.887 155.757 120.021 152.902C117.349 150.24 115.99 146.936 115.99 141.624H109.99ZM132.512 166.475C137.603 168.417 140.198 169.699 141.55 170.805C142.153 171.297 142.394 171.668 142.518 171.953C142.651 172.255 142.75 172.686 142.75 173.448H148.75C148.75 172.182 148.588 170.858 148.015 169.548C147.435 168.221 146.525 167.123 145.347 166.159C143.137 164.353 139.648 162.775 134.651 160.869L132.512 166.475ZM142.75 173.448C142.75 174.628 142.321 175.319 141.609 175.824C140.767 176.421 139.295 176.896 137.118 176.896V182.896C140.036 182.896 142.88 182.279 145.08 180.718C147.41 179.065 148.75 176.532 148.75 173.448H142.75ZM137.118 176.896C130.613 176.896 122.895 174.415 115.757 170.595L112.926 175.885C120.556 179.969 129.27 182.896 137.118 182.896V176.896ZM111.385 172.734L108.785 187.918L114.699 188.93L117.299 173.746L111.385 172.734ZM110.494 191.152C118.137 194.646 126.673 196.832 136.806 196.832V190.832C127.595 190.832 119.906 188.858 112.989 185.696L110.494 191.152ZM136.806 196.832C144.361 196.832 151.518 195.018 156.852 190.804C162.291 186.508 165.494 179.982 165.494 171.368H159.494C159.494 178.354 156.976 183.06 153.133 186.096C149.185 189.214 143.498 190.832 136.806 190.832V196.832ZM231.418 121.24H234.418V118.24H231.418V121.24ZM213.53 121.24V118.24H210.53V121.24H213.53ZM189.194 121.24H192.194V118.24H189.194V121.24ZM171.306 121.24V118.24H168.306V121.24H171.306ZM234.418 164.504V121.24H228.418V164.504H234.418ZM231.418 118.24H213.53V124.24H231.418V118.24ZM210.53 121.24V164.712H216.53V121.24H210.53ZM210.53 164.712C210.53 168.904 209.593 171.734 208.169 173.468C206.827 175.103 204.72 176.168 201.362 176.168V182.168C206.116 182.168 210.093 180.581 212.807 177.276C215.438 174.07 216.53 169.672 216.53 164.712H210.53ZM201.362 176.168C198.086 176.168 195.971 175.097 194.602 173.414C193.152 171.631 192.194 168.738 192.194 164.504H186.194C186.194 169.526 187.316 173.965 189.948 177.2C192.66 180.535 196.63 182.168 201.362 182.168V176.168ZM192.194 164.504V121.24H186.194V164.504H192.194ZM189.194 118.24H171.306V124.24H189.194V118.24ZM168.306 121.24V164.608H174.306V121.24H168.306ZM168.306 164.608C168.306 175.272 171.585 183.535 177.601 189.104C183.577 194.638 191.855 197.144 201.154 197.144V191.144C192.877 191.144 186.231 188.918 181.677 184.702C177.162 180.521 174.306 174.016 174.306 164.608H168.306ZM201.154 197.144C210.37 197.144 218.731 194.575 224.819 189.03C230.952 183.444 234.418 175.165 234.418 164.504H228.418C228.418 173.811 225.436 180.352 220.779 184.594C216.077 188.877 209.306 191.144 201.154 191.144V197.144ZM282.22 155.04L280.997 152.301L273.823 155.503L281.305 157.897L282.22 155.04ZM243.74 121.24V118.24H240.74V121.24H243.74ZM243.74 193H240.74V196H243.74V193ZM260.587 150.256H257.587V153.256H260.587V150.256ZM260.587 134.032V131.032H257.587V134.032H260.587ZM260.587 180.208H257.587V183.208H260.587V180.208ZM260.587 161.696V158.696H257.587V161.696H260.587ZM298.22 172.304C298.22 166.854 296.756 162.454 293.967 159.043C291.21 155.672 287.383 153.542 283.134 152.183L281.305 157.897C284.856 159.034 287.529 160.648 289.322 162.841C291.083 164.994 292.22 167.978 292.22 172.304H298.22ZM283.442 157.779C290.068 154.822 295.516 149.118 295.516 139.856H289.516C289.516 146.194 286.019 150.058 280.997 152.301L283.442 157.779ZM295.516 139.856C295.516 133.286 293.218 127.692 288.332 123.827C283.558 120.051 276.708 118.24 268.18 118.24V124.24C275.979 124.24 281.297 125.913 284.609 128.533C287.809 131.064 289.516 134.778 289.516 139.856H295.516ZM268.18 118.24H243.74V124.24H268.18V118.24ZM240.74 121.24V193H246.74V121.24H240.74ZM243.74 196H267.66V190H243.74V196ZM267.66 196C276.57 196 284.179 194.229 289.637 190.267C295.244 186.196 298.22 180.072 298.22 172.304H292.22C292.22 178.368 289.995 182.592 286.112 185.411C282.08 188.339 275.909 190 267.66 190V196ZM273.707 141.832C273.707 143.71 273.098 144.916 272.167 145.706C271.166 146.555 269.399 147.256 266.516 147.256V153.256C270.288 153.256 273.617 152.345 276.048 150.282C278.549 148.16 279.707 145.154 279.707 141.832H273.707ZM266.516 147.256H260.587V153.256H266.516V147.256ZM263.587 150.256V134.032H257.587V150.256H263.587ZM260.587 137.032H266.931V131.032H260.587V137.032ZM266.931 137.032C269.986 137.032 271.614 137.711 272.447 138.421C273.195 139.059 273.707 140.068 273.707 141.832H279.707C279.707 138.812 278.764 135.921 276.34 133.855C274.001 131.861 270.741 131.032 266.931 131.032V137.032ZM275.475 171.16C275.475 173.421 274.738 174.736 273.656 175.579C272.448 176.519 270.373 177.208 267.139 177.208V183.208C271.082 183.208 274.675 182.389 277.341 180.313C280.133 178.14 281.475 174.931 281.475 171.16H275.475ZM267.139 177.208H260.587V183.208H267.139V177.208ZM263.587 180.208V161.696H257.587V180.208H263.587ZM260.587 164.696H266.931V158.696H260.587V164.696ZM266.931 164.696C270.309 164.696 272.41 165.432 273.619 166.415C274.721 167.312 275.475 168.734 275.475 171.16H281.475C281.475 167.346 280.202 164.036 277.404 161.761C274.713 159.572 271.042 158.696 266.931 158.696V164.696ZM350.536 193V196H353.536V193H350.536ZM350.536 178.752H353.536V175.752H350.536V178.752ZM322.352 178.752H319.352V181.752H322.352V178.752ZM322.352 163.256V160.256H319.352V163.256H322.352ZM345.44 163.256V166.256H348.945L348.404 162.794L345.44 163.256ZM343.152 148.592L346.116 148.13L345.72 145.592H343.152V148.592ZM322.352 148.592H319.352V151.592H322.352V148.592ZM322.352 135.488V132.488H319.352V135.488H322.352ZM349.6 135.488V138.488H352.6V135.488H349.6ZM349.6 121.24H352.6V118.24H349.6V121.24ZM304.88 121.24V118.24H301.88V121.24H304.88ZM304.88 193H301.88V196H304.88V193ZM353.536 193V178.752H347.536V193H353.536ZM350.536 175.752H322.352V181.752H350.536V175.752ZM325.352 178.752V163.256H319.352V178.752H325.352ZM322.352 166.256H345.44V160.256H322.352V166.256ZM348.404 162.794L346.116 148.13L340.188 149.054L342.476 163.718L348.404 162.794ZM343.152 145.592H322.352V151.592H343.152V145.592ZM325.352 148.592V135.488H319.352V148.592H325.352ZM322.352 138.488H349.6V132.488H322.352V138.488ZM352.6 135.488V121.24H346.6V135.488H352.6ZM349.6 118.24H304.88V124.24H349.6V118.24ZM301.88 121.24V193H307.88V121.24H301.88ZM304.88 196H350.536V190H304.88V196ZM360.536 121.24V118.24H357.536V121.24H360.536ZM360.536 193H357.536V196H360.536V193ZM378.32 179.168H375.32V182.168H378.32V179.168ZM378.32 135.072V132.072H375.32V135.072H378.32ZM426.248 157.016C426.248 145.739 422.77 135.955 415.678 128.992C408.588 122.032 398.242 118.24 385.184 118.24V124.24C397.087 124.24 405.773 127.676 411.475 133.274C417.174 138.869 420.248 146.973 420.248 157.016H426.248ZM385.184 118.24H360.536V124.24H385.184V118.24ZM357.536 121.24V193H363.536V121.24H357.536ZM360.536 196H385.704V190H360.536V196ZM385.704 196C398.432 196 408.644 192.136 415.68 185.129C422.713 178.125 426.248 168.304 426.248 157.016H420.248C420.248 167.048 417.128 175.219 411.446 180.877C405.769 186.532 397.209 190 385.704 190V196ZM402.36 157.12C402.36 164.332 400.513 168.963 397.693 171.802C394.877 174.64 390.615 176.168 384.768 176.168V182.168C391.61 182.168 397.644 180.368 401.951 176.03C406.256 171.693 408.36 165.3 408.36 157.12H402.36ZM384.768 176.168H378.32V182.168H384.768V176.168ZM381.32 179.168V135.072H375.32V179.168H381.32ZM378.32 138.072H384.768V132.072H378.32V138.072ZM384.768 138.072C390.292 138.072 394.589 139.645 397.506 142.562C400.418 145.475 402.36 150.131 402.36 157.12H408.36C408.36 149.029 406.09 142.661 401.749 138.32C397.412 133.983 391.413 132.072 384.768 132.072V138.072ZM452.065 193V196H455.065V193H452.065ZM452.065 121.24H455.065V118.24H452.065V121.24ZM434.28 121.24V118.24H431.28V121.24H434.28ZM434.28 193H431.28V196H434.28V193ZM455.065 193V121.24H449.065V193H455.065ZM452.065 118.24H434.28V124.24H452.065V118.24ZM431.28 121.24V193H437.28V121.24H431.28ZM434.28 196H452.065V190H434.28V196Z" fill="url(#paint0_linear_235_17)"/>
<defs>
<linearGradient id="paint0_linear_235_17" x1="210.5" y1="-26" x2="210.5" y2="214" gradientUnits="userSpaceOnUse">
<stop stop-color="white"/>
<stop offset="0.59779" stop-color="white" stop-opacity="0.493673"/>
<stop offset="1" stop-color="white" stop-opacity="0"/>
</linearGradient>
</defs>
</svg>
