<svg width="58" height="48" viewBox="0 0 58 48" fill="none" xmlns="http://www.w3.org/2000/svg">
<g clip-path="url(#clip0_257_193)">
<path d="M58 5.84516C55.8281 6.82049 53.5244 7.4607 51.1655 7.74449C53.6226 6.25166 55.5092 3.88772 56.3975 1.07111C54.0618 2.47617 51.5063 3.46612 48.8414 3.99819C46.6707 1.654 43.5784 0.188965 40.1557 0.188965C33.584 0.188965 28.256 5.58977 28.256 12.251C28.256 13.1965 28.3613 14.117 28.5641 15.0001C18.6746 14.4969 9.90667 9.6948 4.03757 2.39697C3.01351 4.17848 2.42671 6.25075 2.42671 8.46104C2.42671 12.646 4.52763 16.3379 7.72034 18.5011C5.8307 18.4411 3.98263 17.9237 2.33042 16.9922C2.32974 17.0427 2.32974 17.0932 2.32974 17.144C2.32974 22.9883 6.43143 27.8636 11.8748 28.9717C10.1226 29.4548 8.28455 29.5255 6.50121 29.1784C8.01533 33.9706 12.41 37.4579 17.6168 37.5555C13.5444 40.7905 8.4134 42.719 2.8386 42.719C1.87798 42.719 0.930945 42.6618 0 42.5505C5.26599 45.9729 11.5207 47.9699 18.2405 47.9699C40.1281 47.9699 52.0967 29.5895 52.0967 13.6499C52.0967 13.1267 52.0854 12.6065 52.0623 12.0893C54.3918 10.3822 56.4025 8.2677 58 5.84516Z" fill="#55ACEE"/>
</g>
<defs>
<clipPath id="clip0_257_193">
<rect width="58" height="48" fill="white"/>
</clipPath>
</defs>
</svg>
