<svg width="69" height="48" viewBox="0 0 69 48" fill="none" xmlns="http://www.w3.org/2000/svg">
<g clip-path="url(#clip0_257_195)">
<path d="M67.4761 7.48667C67.0804 6.03962 66.3083 4.72039 65.237 3.66034C64.1656 2.6003 62.8322 1.83643 61.3696 1.4448C56.0151 0 34.465 0 34.465 0C34.465 0 12.9138 0.0437332 7.55933 1.48853C6.09671 1.88019 4.76332 2.6441 3.69194 3.70419C2.62055 4.76428 1.84856 6.08357 1.45283 7.53067C-0.166788 16.9435 -0.795065 31.2864 1.4973 40.3227C1.89307 41.7697 2.66509 43.089 3.73647 44.149C4.80785 45.209 6.14122 45.9729 7.6038 46.3645C12.9583 47.8093 34.5089 47.8093 34.5089 47.8093C34.5089 47.8093 56.0593 47.8093 61.4136 46.3645C62.8762 45.9729 64.2096 45.2091 65.281 44.1491C66.3525 43.089 67.1245 41.7698 67.5203 40.3227C69.2286 30.8965 69.755 16.5627 67.4761 7.48693V7.48667Z" fill="#FF0000"/>
<path d="M27.6055 34.1493L45.4829 23.9045L27.6055 13.6597V34.1493Z" fill="white"/>
</g>
<defs>
<clipPath id="clip0_257_195">
<rect width="69" height="48" fill="white"/>
</clipPath>
</defs>
</svg>
